<mxfile host="drawio-plugin" modified="2022-07-20T08:33:10.269Z" agent="5.0 (X11; Linux x86_64) AppleWebKit/537.36 (KHTML, like Gecko) Chrome/97.0.4692.45 Safari/537.36" etag="kNzVEp6eiJHmNd5Oxd2Q" version="15.5.4" type="embed"><diagram id="WIfHQcKGwRyhkXrHbkIF" name="Page-1"><mxGraphModel dx="1113" dy="293" grid="1" gridSize="10" guides="1" tooltips="1" connect="1" arrows="1" fold="1" page="1" pageScale="1" pageWidth="827" pageHeight="1169" math="0" shadow="0"><root><mxCell id="0"/><mxCell id="1" parent="0"/><mxCell id="20" value="&lt;p style=&quot;line-height: 0.1&quot;&gt;&lt;br&gt;&lt;/p&gt;&lt;p style=&quot;line-height: 1.2&quot;&gt;&lt;span&gt;Raw&amp;nbsp;TCP&lt;/span&gt;&lt;br&gt;&lt;/p&gt;" style="rounded=1;whiteSpace=wrap;html=1;glass=0;fontStyle=1;fontColor=#000000;fillColor=#FFCC99;strokeColor=#FFB366;strokeWidth=2;" parent="1" vertex="1"><mxGeometry x="50" y="60" width="130" height="60" as="geometry"/></mxCell><mxCell id="19" value="Deimic" style="rounded=0;whiteSpace=wrap;html=1;fontStyle=1;fillColor=#E6E6E6;shadow=0;fontColor=#333333;strokeColor=#000000;strokeWidth=2;" parent="1" vertex="1"><mxGeometry x="50" y="10" width="130" height="60" as="geometry"/></mxCell><mxCell id="31" value="" style="shape=ext;double=1;rounded=0;whiteSpace=wrap;html=1;shadow=0;container=1;collapsible=1;recursiveResize=0;fillColor=#F5F5F5;fontStyle=1;strokeColor=#000000;fontColor=#333333;strokeWidth=2;" parent="1" vertex="1"><mxGeometry x="20" y="210" width="800" height="590" as="geometry"><mxRectangle x="10" y="200" width="50" height="40" as="alternateBounds"/></mxGeometry></mxCell><mxCell id="183" style="edgeStyle=none;html=1;exitX=0.5;exitY=0;exitDx=0;exitDy=0;entryX=0.5;entryY=1;entryDx=0;entryDy=0;fontColor=#FFFFFF;startArrow=none;startFill=0;endArrow=classic;endFill=1;strokeColor=#FF3399;strokeWidth=2;" parent="31" source="182" target="158" edge="1"><mxGeometry relative="1" as="geometry"><Array as="points"><mxPoint x="360" y="450"/><mxPoint x="270" y="450"/></Array></mxGeometry></mxCell><mxCell id="182" value="ZMQ PUB" style="rounded=1;whiteSpace=wrap;html=1;fontColor=#000000;strokeColor=#FF00FF;fillColor=#FF66B3;gradientColor=none;fontStyle=1;strokeWidth=2;" parent="31" vertex="1"><mxGeometry x="330" y="480" width="60" height="60" as="geometry"/></mxCell><mxCell id="174" style="edgeStyle=none;html=1;exitX=0.5;exitY=1;exitDx=0;exitDy=0;entryX=0.5;entryY=0;entryDx=0;entryDy=0;fontColor=#FFFFFF;strokeColor=#3333FF;strokeWidth=2;" parent="31" source="170" target="168" edge="1"><mxGeometry relative="1" as="geometry"><Array as="points"><mxPoint x="130" y="390"/><mxPoint x="80" y="390"/></Array></mxGeometry></mxCell><mxCell id="175" style="edgeStyle=none;html=1;exitX=0.5;exitY=1;exitDx=0;exitDy=0;entryX=0.5;entryY=0;entryDx=0;entryDy=0;fontColor=#FFFFFF;strokeColor=#3333FF;strokeWidth=2;" parent="31" source="170" target="169" edge="1"><mxGeometry relative="1" as="geometry"><Array as="points"><mxPoint x="130" y="390"/><mxPoint x="220" y="390"/></Array></mxGeometry></mxCell><mxCell id="176" style="edgeStyle=none;html=1;exitX=0.5;exitY=1;exitDx=0;exitDy=0;entryX=0.5;entryY=0;entryDx=0;entryDy=0;fontColor=#FFFFFF;strokeColor=#3333FF;strokeWidth=2;" parent="31" source="170" target="167" edge="1"><mxGeometry relative="1" as="geometry"><Array as="points"><mxPoint x="130" y="390"/><mxPoint x="429" y="390"/></Array></mxGeometry></mxCell><mxCell id="180" value="State update&lt;br&gt;requests" style="edgeLabel;html=1;align=center;verticalAlign=middle;resizable=0;points=[];fontColor=#000000;labelBackgroundColor=none;" parent="176" vertex="1" connectable="0"><mxGeometry x="-0.7374" y="1" relative="1" as="geometry"><mxPoint x="39" y="-53" as="offset"/></mxGeometry></mxCell><mxCell id="170" value="ZMQ PUB" style="rounded=1;whiteSpace=wrap;html=1;fontColor=#000000;strokeColor=#0000FF;fillColor=#3333FF;gradientColor=none;fontStyle=1;strokeWidth=2;" parent="31" vertex="1"><mxGeometry x="100" y="170" width="60" height="50" as="geometry"/></mxCell><mxCell id="168" value="ZMQ SUB" style="rounded=1;whiteSpace=wrap;html=1;fontColor=#000000;strokeColor=#3333FF;fillColor=#6666FF;gradientColor=none;fontStyle=1;strokeWidth=2;" parent="31" vertex="1"><mxGeometry x="50" y="480" width="60" height="60" as="geometry"/></mxCell><mxCell id="169" value="ZMQ SUB" style="rounded=1;whiteSpace=wrap;html=1;fontColor=#000000;strokeColor=#3333FF;fillColor=#6666FF;gradientColor=none;fontStyle=1;strokeWidth=2;" parent="31" vertex="1"><mxGeometry x="190" y="480" width="60" height="60" as="geometry"/></mxCell><mxCell id="167" value="ZMQ SUB" style="rounded=1;whiteSpace=wrap;html=1;fontColor=#000000;strokeColor=#3333FF;fillColor=#6666FF;gradientColor=none;fontStyle=1;strokeWidth=2;" parent="31" vertex="1"><mxGeometry x="399" y="480" width="60" height="60" as="geometry"/></mxCell><mxCell id="181" style="edgeStyle=none;html=1;exitX=0.5;exitY=0;exitDx=0;exitDy=0;entryX=1;entryY=0.5;entryDx=0;entryDy=0;fontColor=#FFFFFF;startArrow=none;startFill=0;endArrow=classic;endFill=1;strokeColor=#33FF33;strokeWidth=2;" parent="31" source="161" target="79" edge="1"><mxGeometry relative="1" as="geometry"><Array as="points"><mxPoint x="290" y="420"/><mxPoint x="460" y="420"/><mxPoint x="460" y="145"/></Array></mxGeometry></mxCell><mxCell id="161" value="ZMQ REQ" style="rounded=1;whiteSpace=wrap;html=1;fontColor=#000000;strokeColor=#66FF66;fillColor=#99FF99;gradientColor=none;fontStyle=1;strokeWidth=2;" parent="31" vertex="1"><mxGeometry x="260" y="480" width="60" height="60" as="geometry"/></mxCell><mxCell id="162" value="ZMQ PUB" style="rounded=1;whiteSpace=wrap;html=1;fontColor=#000000;strokeColor=#FF00FF;fillColor=#FF66B3;gradientColor=none;fontStyle=1;strokeWidth=2;" parent="31" vertex="1"><mxGeometry x="120" y="480" width="60" height="60" as="geometry"/></mxCell><mxCell id="160" value="ZMQ PUB" style="rounded=1;whiteSpace=wrap;html=1;fontColor=#000000;strokeColor=#FF00FF;fillColor=#FF66B3;gradientColor=none;fontStyle=1;strokeWidth=2;" parent="31" vertex="1"><mxGeometry x="470" y="480" width="60" height="60" as="geometry"/></mxCell><mxCell id="158" value="ZMQ SUB" style="rounded=1;whiteSpace=wrap;html=1;fontColor=#000000;strokeColor=#FF0080;fillColor=#FF3399;gradientColor=none;fontStyle=1;strokeWidth=2;" parent="31" vertex="1"><mxGeometry x="240" y="170" width="60" height="50" as="geometry"/></mxCell><mxCell id="153" style="edgeStyle=none;html=1;exitX=0.5;exitY=0;exitDx=0;exitDy=0;entryX=0.5;entryY=1;entryDx=0;entryDy=0;fontColor=#000000;strokeColor=#FF3399;strokeWidth=2;" parent="31" edge="1"><mxGeometry relative="1" as="geometry"><mxPoint x="320" y="220" as="targetPoint"/></mxGeometry></mxCell><mxCell id="150" style="edgeStyle=none;html=1;exitX=0.5;exitY=0;exitDx=0;exitDy=0;entryX=0.5;entryY=1;entryDx=0;entryDy=0;fontColor=#000000;strokeColor=#FF3399;strokeWidth=2;" parent="31" edge="1"><mxGeometry relative="1" as="geometry"><mxPoint x="320" y="220" as="targetPoint"/><Array as="points"><mxPoint x="460" y="430"/><mxPoint x="320" y="430"/><mxPoint x="320" y="270"/></Array></mxGeometry></mxCell><mxCell id="142" style="edgeStyle=none;html=1;exitX=1;exitY=0.5;exitDx=0;exitDy=0;entryX=0.5;entryY=0;entryDx=0;entryDy=0;fontSize=12;rounded=1;strokeColor=#FF0000;strokeWidth=2;" parent="31" source="54" target="141" edge="1"><mxGeometry relative="1" as="geometry"><Array as="points"><mxPoint x="500" y="95"/><mxPoint x="500" y="340"/><mxPoint x="570" y="340"/></Array></mxGeometry></mxCell><mxCell id="54" value="ZMQ&lt;br&gt;PUB" style="rounded=1;whiteSpace=wrap;html=1;shadow=0;sketch=0;fontSize=12;fontStyle=1;fillColor=#FF3333;fontColor=#000000;strokeColor=#FF0000;strokeWidth=2;" parent="31" vertex="1"><mxGeometry x="340" y="70" width="59" height="50" as="geometry"/></mxCell><mxCell id="22" value="ZMQ Stream" style="rounded=1;whiteSpace=wrap;html=1;fontStyle=1;fontColor=#000000;fillColor=#FFB366;strokeColor=#FF8000;strokeWidth=2;" parent="31" vertex="1"><mxGeometry x="50" y="20" width="90" height="60" as="geometry"/></mxCell><mxCell id="42" value="Led driver" style="rounded=0;whiteSpace=wrap;html=1;shadow=0;fontStyle=1;fillColor=#E6E6E6;strokeWidth=2;strokeColor=#000000;fontColor=#333333;" parent="31" vertex="1"><mxGeometry x="50" y="530" width="130" height="50" as="geometry"/></mxCell><mxCell id="48" value="&lt;span style=&quot;font-size: 14px ; font-weight: 700&quot;&gt;Raspberry PI internal system&lt;/span&gt;" style="shape=partialRectangle;whiteSpace=wrap;html=1;bottom=0;top=0;fillColor=none;rounded=0;shadow=0;sketch=0;fontSize=12;fontColor=#000000;strokeColor=default;horizontal=0;left=0;" parent="31" vertex="1"><mxGeometry x="12" y="10" width="30" height="580" as="geometry"/></mxCell><mxCell id="68" value="Voice recognition" style="rounded=0;whiteSpace=wrap;html=1;shadow=0;glass=0;sketch=0;fontSize=12;fontColor=#333333;strokeColor=#000000;fillColor=#E6E6E6;fontStyle=1;strokeWidth=2;" parent="31" vertex="1"><mxGeometry x="190" y="530" width="200" height="50" as="geometry"/></mxCell><mxCell id="79" value="ZMQ ROUTER" style="rounded=1;whiteSpace=wrap;html=1;fontStyle=1;fontColor=#000000;fillColor=#33FF33;strokeColor=#66FF66;strokeWidth=2;" parent="31" vertex="1"><mxGeometry x="340" y="120" width="80" height="50" as="geometry"/></mxCell><mxCell id="33" value="Communication bridge/translator/proxy" style="rounded=0;whiteSpace=wrap;html=1;shadow=0;fontStyle=1;fillColor=#FFFFFF;fontColor=#333333;strokeColor=#000000;strokeWidth=2;" parent="31" vertex="1"><mxGeometry x="50" y="70" width="300" height="110" as="geometry"/></mxCell><mxCell id="136" value="" style="shape=ext;double=1;rounded=0;whiteSpace=wrap;html=1;fontSize=12;fillColor=#EBEBEB;gradientColor=none;container=1;recursiveResize=0;shadow=0;fontStyle=1;strokeColor=#000000;fontColor=#333333;strokeWidth=2;" parent="31" vertex="1"><mxGeometry x="560" y="20" width="230" height="300" as="geometry"><mxRectangle x="560" y="20" width="50" height="40" as="alternateBounds"/></mxGeometry></mxCell><mxCell id="118" value="" style="group;fontStyle=0;strokeColor=none;strokeWidth=2;" parent="136" vertex="1" connectable="0"><mxGeometry x="20" y="125" width="190" height="60" as="geometry"/></mxCell><mxCell id="119" value="ZMQ&lt;br&gt;REQ" style="rounded=1;whiteSpace=wrap;html=1;fontSize=12;fontColor=#000000;fillColor=#99FF99;fontStyle=1;strokeColor=#66FF66;strokeWidth=2;" parent="118" vertex="1"><mxGeometry width="70" height="60" as="geometry"/></mxCell><mxCell id="120" value="&lt;span style=&quot;font-size: 12px&quot;&gt;Internal CLI Tool&lt;/span&gt;" style="rounded=0;whiteSpace=wrap;html=1;fontSize=12;fontStyle=1;fillColor=#FFFFFF;shadow=0;fontColor=#333333;strokeColor=#000000;strokeWidth=2;" parent="118" vertex="1"><mxGeometry x="60" width="130" height="60" as="geometry"/></mxCell><mxCell id="138" value="&lt;span style=&quot;font-size: 14px&quot;&gt;&lt;b&gt;Internal User's Tools&lt;br&gt;&lt;/b&gt;&lt;/span&gt;" style="shape=partialRectangle;whiteSpace=wrap;html=1;bottom=0;top=0;fillColor=none;rounded=0;shadow=0;sketch=0;fontSize=12;fontColor=#000000;strokeColor=#000000;horizontal=0;left=0;rotation=90;" parent="136" vertex="1"><mxGeometry x="95" y="-75" width="30" height="190" as="geometry"/></mxCell><mxCell id="117" value="" style="group;fillColor=#E6E6E6;fontStyle=1;verticalAlign=middle;strokeColor=none;fontColor=#333333;rounded=0;shadow=0;" parent="136" vertex="1" connectable="0"><mxGeometry x="20" y="50" width="190" height="60" as="geometry"/></mxCell><mxCell id="112" value="ZMQ&lt;br&gt;REQ" style="rounded=1;whiteSpace=wrap;html=1;fontSize=12;fillColor=#99FF99;fontColor=#000000;fontStyle=1;strokeColor=#66FF66;strokeWidth=2;" parent="117" vertex="1"><mxGeometry width="70" height="60" as="geometry"/></mxCell><mxCell id="110" value="&lt;span style=&quot;font-size: 12px&quot;&gt;Internal CLI Tool&lt;/span&gt;" style="rounded=0;whiteSpace=wrap;html=1;fontSize=12;fontStyle=1;fillColor=#FFFFFF;shadow=0;fontColor=#333333;strokeColor=#000000;strokeWidth=2;" parent="117" vertex="1"><mxGeometry x="60" width="130" height="60" as="geometry"/></mxCell><mxCell id="122" value="&lt;b&gt;&lt;font style=&quot;font-size: 24px&quot;&gt;...&lt;/font&gt;&lt;/b&gt;" style="text;html=1;align=center;verticalAlign=middle;whiteSpace=wrap;rounded=0;fontColor=#000000;" parent="136" vertex="1"><mxGeometry x="85" y="270" width="60" height="20" as="geometry"/></mxCell><mxCell id="190" value="ZMQ&lt;br&gt;SUB" style="rounded=1;whiteSpace=wrap;html=1;fontSize=12;fillColor=#FF6666;gradientColor=none;fontColor=#000000;fontStyle=1;strokeColor=#FF3333;strokeWidth=2;" parent="136" vertex="1"><mxGeometry x="20" y="200" width="65" height="60" as="geometry"/></mxCell><mxCell id="186" value="" style="group;fontStyle=0;strokeColor=none;strokeWidth=2;" parent="136" vertex="1" connectable="0"><mxGeometry x="20" y="200" width="190" height="60" as="geometry"/></mxCell><mxCell id="188" value="&lt;span style=&quot;font-size: 12px&quot;&gt;Internal CLI Monitor Tool`&lt;br&gt;&lt;/span&gt;" style="rounded=0;whiteSpace=wrap;html=1;fontSize=12;fontStyle=1;fillColor=#FFFFFF;shadow=0;fontColor=#333333;strokeColor=#000000;strokeWidth=2;" parent="186" vertex="1"><mxGeometry x="60" width="130" height="60" as="geometry"/></mxCell><mxCell id="116" value="" style="endArrow=classic;startArrow=classic;html=1;fontSize=12;exitX=0;exitY=0.5;exitDx=0;exitDy=0;entryX=1;entryY=0.5;entryDx=0;entryDy=0;strokeColor=#00FF22;strokeWidth=2;" parent="31" source="112" target="79" edge="1"><mxGeometry width="50" height="50" relative="1" as="geometry"><mxPoint x="470" y="140" as="sourcePoint"/><mxPoint x="520" y="90" as="targetPoint"/><Array as="points"><mxPoint x="540" y="100"/><mxPoint x="540" y="145"/><mxPoint x="460" y="145"/></Array></mxGeometry></mxCell><mxCell id="121" value="" style="endArrow=classic;startArrow=classic;html=1;fontSize=12;entryX=0;entryY=0.5;entryDx=0;entryDy=0;exitX=1;exitY=0.5;exitDx=0;exitDy=0;strokeColor=#00FF22;strokeWidth=2;" parent="31" source="79" target="119" edge="1"><mxGeometry width="50" height="50" relative="1" as="geometry"><mxPoint x="349.95" y="410" as="sourcePoint"/><mxPoint x="399.95" y="360" as="targetPoint"/><Array as="points"><mxPoint x="460" y="145"/><mxPoint x="540" y="145"/><mxPoint x="540" y="175"/></Array></mxGeometry></mxCell><mxCell id="141" value="ZMQ SUB" style="rounded=1;whiteSpace=wrap;html=1;fontSize=12;fillColor=#FF6666;gradientColor=none;fontColor=#000000;fontStyle=1;strokeColor=#FF3333;strokeWidth=2;" parent="31" vertex="1"><mxGeometry x="540" y="480" width="60" height="60" as="geometry"/></mxCell><mxCell id="82" value="Voice notifications&lt;br&gt;" style="rounded=0;whiteSpace=wrap;html=1;fontSize=12;fontStyle=1;fillColor=#E6E6E6;shadow=0;strokeWidth=2;strokeColor=#000000;fontColor=#333333;" parent="31" vertex="1"><mxGeometry x="399" y="530" width="201" height="50" as="geometry"/></mxCell><mxCell id="154" style="edgeStyle=none;html=1;exitX=0.5;exitY=0;exitDx=0;exitDy=0;fontColor=#000000;strokeColor=#FF3399;strokeWidth=2;entryX=0.5;entryY=1;entryDx=0;entryDy=0;" parent="31" edge="1"><mxGeometry relative="1" as="geometry"><mxPoint x="320" y="220" as="targetPoint"/><Array as="points"><mxPoint x="170" y="430"/><mxPoint x="320" y="430"/><mxPoint x="320" y="270"/></Array></mxGeometry></mxCell><mxCell id="155" value="&lt;font color=&quot;#ffffff&quot;&gt;State updates&lt;/font&gt;" style="edgeLabel;html=1;align=center;verticalAlign=middle;resizable=0;points=[];fontColor=#000000;" parent="154" vertex="1" connectable="0"><mxGeometry x="0.487" y="-4" relative="1" as="geometry"><mxPoint x="-4" y="-5" as="offset"/></mxGeometry></mxCell><mxCell id="163" style="edgeStyle=none;html=1;exitX=0.5;exitY=0;exitDx=0;exitDy=0;entryX=0.5;entryY=1;entryDx=0;entryDy=0;fontColor=#000000;strokeColor=#FF3399;strokeWidth=2;" parent="31" source="162" target="158" edge="1"><mxGeometry relative="1" as="geometry"><Array as="points"><mxPoint x="150" y="450"/><mxPoint x="270" y="450"/></Array></mxGeometry></mxCell><mxCell id="165" style="edgeStyle=none;html=1;exitX=0.5;exitY=0;exitDx=0;exitDy=0;fontColor=#000000;strokeColor=#FF3399;strokeWidth=2;entryX=0.5;entryY=1;entryDx=0;entryDy=0;" parent="31" source="160" target="158" edge="1"><mxGeometry relative="1" as="geometry"><mxPoint x="330" y="240" as="targetPoint"/><Array as="points"><mxPoint x="500" y="450"/><mxPoint x="270" y="450"/></Array></mxGeometry></mxCell><mxCell id="166" value="&lt;font&gt;State update info&lt;br&gt;and&lt;br&gt;Errors&lt;/font&gt;" style="edgeLabel;html=1;align=center;verticalAlign=middle;resizable=0;points=[];fontColor=#000000;labelBackgroundColor=none;" parent="165" vertex="1" connectable="0"><mxGeometry x="0.7352" y="-1" relative="1" as="geometry"><mxPoint x="49" y="-35" as="offset"/></mxGeometry></mxCell><mxCell id="185" value="Requests | Reply&lt;br&gt;Requests are sent as update requests and replies as update info" style="shape=process;whiteSpace=wrap;html=1;backgroundOutline=1;allowArrows=1;part=0;treeFolding=0;fillColor=#E6E6E6;rounded=0;shadow=0;fontStyle=1;strokeColor=#000000;fontColor=#000000;strokeWidth=2;" parent="31" vertex="1"><mxGeometry x="120" y="300" width="160" height="60" as="geometry"/></mxCell><mxCell id="192" style="edgeStyle=orthogonalEdgeStyle;rounded=1;orthogonalLoop=1;jettySize=auto;html=1;exitX=1;exitY=0.5;exitDx=0;exitDy=0;entryX=0;entryY=0.5;entryDx=0;entryDy=0;fontSize=12;strokeColor=#FF0000;strokeWidth=2;" parent="31" source="54" target="190" edge="1"><mxGeometry relative="1" as="geometry"><Array as="points"><mxPoint x="500" y="95"/><mxPoint x="500" y="250"/></Array></mxGeometry></mxCell><mxCell id="65" value="" style="endArrow=classic;startArrow=classic;html=1;fontSize=12;fontColor=default;endSize=6;targetPerimeterSpacing=0;strokeWidth=2;exitX=0.5;exitY=0;exitDx=0;exitDy=0;entryX=0.5;entryY=1;entryDx=0;entryDy=0;strokeColor=#FFB366;" parent="1" source="22" target="20" edge="1"><mxGeometry width="50" height="50" relative="1" as="geometry"><mxPoint x="360" y="310" as="sourcePoint"/><mxPoint x="410" y="260" as="targetPoint"/></mxGeometry></mxCell><mxCell id="92" value="" style="endArrow=classic;startArrow=classic;html=1;exitX=1;exitY=0.5;exitDx=0;exitDy=0;entryX=0.5;entryY=1;entryDx=0;entryDy=0;strokeColor=#00FF22;strokeWidth=2;startFill=1;" parent="1" source="79" target="37" edge="1"><mxGeometry width="50" height="50" relative="1" as="geometry"><mxPoint x="430" y="210" as="sourcePoint"/><mxPoint x="480" y="160" as="targetPoint"/><Array as="points"><mxPoint x="480" y="355"/><mxPoint x="480" y="190"/></Array></mxGeometry></mxCell><mxCell id="93" value="" style="endArrow=classic;startArrow=classic;html=1;exitX=1;exitY=0.5;exitDx=0;exitDy=0;entryX=0.5;entryY=1;entryDx=0;entryDy=0;strokeColor=#00FF22;strokeWidth=2;startFill=1;" parent="1" source="79" target="88" edge="1"><mxGeometry width="50" height="50" relative="1" as="geometry"><mxPoint x="430" y="210" as="sourcePoint"/><mxPoint x="480" y="160" as="targetPoint"/><Array as="points"><mxPoint x="480" y="355"/><mxPoint x="480" y="190"/></Array></mxGeometry></mxCell><mxCell id="157" value="State update&lt;br&gt;requests" style="edgeLabel;html=1;align=center;verticalAlign=middle;resizable=0;points=[];fontColor=#000000;labelBackgroundColor=none;" parent="93" vertex="1" connectable="0"><mxGeometry x="-0.0781" relative="1" as="geometry"><mxPoint x="-40" y="165" as="offset"/></mxGeometry></mxCell><mxCell id="96" style="edgeStyle=none;html=1;exitX=1;exitY=0.5;exitDx=0;exitDy=0;entryX=0.5;entryY=1;entryDx=0;entryDy=0;strokeColor=#FF0000;strokeWidth=2;" parent="1" source="54" target="83" edge="1"><mxGeometry relative="1" as="geometry"><Array as="points"><mxPoint x="450" y="305"/><mxPoint x="450" y="190"/></Array></mxGeometry></mxCell><mxCell id="98" style="edgeStyle=none;html=1;exitX=1;exitY=0.5;exitDx=0;exitDy=0;entryX=0.5;entryY=1;entryDx=0;entryDy=0;strokeColor=#FF0000;strokeWidth=2;" parent="1" source="54" target="89" edge="1"><mxGeometry relative="1" as="geometry"><Array as="points"><mxPoint x="450" y="305"/><mxPoint x="450" y="190"/></Array></mxGeometry></mxCell><mxCell id="156" value="Notifications&lt;br&gt;and&lt;br&gt;State updates info" style="edgeLabel;html=1;align=center;verticalAlign=middle;resizable=0;points=[];fontColor=#000000;labelBackgroundColor=none;" parent="98" vertex="1" connectable="0"><mxGeometry x="-0.6622" relative="1" as="geometry"><mxPoint x="-50" y="-42" as="offset"/></mxGeometry></mxCell><mxCell id="103" value="" style="group" parent="1" vertex="1" connectable="0"><mxGeometry x="320" y="10" width="320" height="110" as="geometry"/></mxCell><mxCell id="97" value="" style="group" parent="103" vertex="1" connectable="0"><mxGeometry x="60" width="260" height="110" as="geometry"/></mxCell><mxCell id="37" value="ZMQ DEALER" style="rounded=1;whiteSpace=wrap;html=1;shadow=0;sketch=0;fontSize=12;fontStyle=1;fontColor=#000000;fillColor=#99FF99;verticalAlign=middle;strokeColor=#33FF33;strokeWidth=2;" parent="97" vertex="1"><mxGeometry x="60" y="50" width="60" height="60" as="geometry"/></mxCell><mxCell id="83" value="&lt;br&gt;ZMQ SUB" style="rounded=1;whiteSpace=wrap;html=1;fontSize=12;fontStyle=1;fillColor=#FF6666;fontColor=#000000;verticalAlign=middle;strokeColor=#FF3333;strokeWidth=2;" parent="97" vertex="1"><mxGeometry x="-10" y="50" width="60" height="60" as="geometry"/></mxCell><mxCell id="21" value="External Desktop/Mobile app instances" style="rounded=0;whiteSpace=wrap;html=1;fontStyle=1;fillColor=#E6E6E6;shadow=0;strokeColor=#000000;fontColor=#333333;strokeWidth=2;" parent="97" vertex="1"><mxGeometry x="-10" width="130" height="60" as="geometry"/></mxCell><mxCell id="88" value="ZMQ&lt;br&gt;DEALER" style="rounded=1;whiteSpace=wrap;html=1;shadow=0;sketch=0;fontSize=12;fontStyle=1;fontColor=#000000;fillColor=#99FF99;strokeColor=#33FF33;strokeWidth=2;" parent="97" vertex="1"><mxGeometry x="200" y="50" width="60" height="60" as="geometry"/></mxCell><mxCell id="89" value="&lt;br&gt;ZMQ SUB" style="rounded=1;whiteSpace=wrap;html=1;fontSize=12;fontStyle=1;fillColor=#FF6666;fontColor=#000000;strokeColor=#FF3333;strokeWidth=2;" parent="97" vertex="1"><mxGeometry x="130" y="50" width="60" height="60" as="geometry"/></mxCell><mxCell id="90" value="External Desktop/Mobile app instances" style="rounded=0;whiteSpace=wrap;html=1;fontStyle=1;fillColor=#E6E6E6;shadow=0;strokeColor=#000000;fontColor=#333333;strokeWidth=2;" parent="97" vertex="1"><mxGeometry x="130" width="130" height="60" as="geometry"/></mxCell><mxCell id="101" value="&lt;b&gt;&lt;font style=&quot;font-size: 24px&quot;&gt;...&lt;/font&gt;&lt;/b&gt;" style="text;html=1;align=center;verticalAlign=middle;whiteSpace=wrap;rounded=0;fontColor=#000000;" parent="1" vertex="1"><mxGeometry x="640" y="90" width="60" height="30" as="geometry"/></mxCell></root></mxGraphModel></diagram></mxfile>